<?xml version="1.0" encoding="UTF-8" standalone="no"?>
<svg
   xmlns:dc="http://purl.org/dc/elements/1.1/"
   xmlns:cc="http://creativecommons.org/ns#"
   xmlns:rdf="http://www.w3.org/1999/02/22-rdf-syntax-ns#"
   xmlns:svg="http://www.w3.org/2000/svg"
   xmlns="http://www.w3.org/2000/svg"
   id="svg8"
   version="1.1"
   viewBox="0 0 135.46666 135.46667"
   height="512"
   width="512">
  <defs
     id="defs2" />
  <metadata
     id="metadata5">
    <rdf:RDF>
      <cc:Work
         rdf:about="">
        <dc:format>image/svg+xml</dc:format>
        <dc:type
           rdf:resource="http://purl.org/dc/dcmitype/StillImage" />
        <dc:title></dc:title>
      </cc:Work>
    </rdf:RDF>
  </metadata>
  <g
     transform="translate(0,-161.53332)"
     id="layer1">
    <path
       d="M 101.93596,263.46928 60.781071,277.87 23.862486,254.67251 l -4.881837,-43.3275 30.831032,-30.83104 43.327507,4.88184 23.197482,36.91859 z"
       id="path815"
       style="fill:none;stroke:#69aabd;stroke-width:6.45121956;stroke-linecap:round;stroke-linejoin:round;stroke-miterlimit:4;stroke-dasharray:none;stroke-opacity:1;paint-order:normal" />
    <path
       transform="scale(-1,1)"
       d="m -44.074909,252.91442 -28.573906,9.99844 -25.632635,-16.10605 -3.38947,-30.08236 21.40604,-21.40604 30.08236,3.38947 16.106053,25.63263 z"
       id="path815-3-6"
       style="fill:none;stroke:#69aabd;stroke-width:5.37601662;stroke-linecap:round;stroke-linejoin:round;stroke-miterlimit:4;stroke-dasharray:none;stroke-opacity:1;paint-order:normal" />
    <path
       transform="scale(1,-1)"
       d="m 81.446339,-215.543 -16.7321,5.85482 -15.009772,-9.43127 -1.98478,-17.61541 12.534792,-12.53479 17.61541,1.98478 9.431265,15.00978 z"
       id="path815-3-7"
       style="fill:none;stroke:#69aabd;stroke-width:4.3008132;stroke-linecap:round;stroke-linejoin:round;stroke-miterlimit:4;stroke-dasharray:none;stroke-opacity:1;paint-order:normal" />
    <path
       transform="scale(-1)"
       d="m -60.633504,-222.16682 -8.827851,3.089 -7.919151,-4.97593 -1.04717,-9.29389 6.613353,-6.61335 9.293885,1.04717 4.975932,7.91915 z"
       id="path815-3-6-5"
       style="fill:none;stroke:#69aabd;stroke-width:3.22560978;stroke-linecap:round;stroke-linejoin:round;stroke-miterlimit:4;stroke-dasharray:none;stroke-opacity:1;paint-order:normal" />
  </g>
</svg>
